<svg preserveAspectRatio="none" overflow="visible" style="display: block;" width="20" height="20" viewBox="0 0 20 20" fill="none" xmlns="http://www.w3.org/2000/svg">
<g id="icon-frame">
<path id="Vector" d="M9.99891 10.4396V13.9698M9.99891 17.5H10.0064M7.09446 14.8073C6.15614 14.6682 5.26716 14.2336 4.52144 13.5492C3.77571 12.8649 3.20092 11.9563 2.85779 10.9193C2.51466 9.88244 2.41592 8.75575 2.57201 7.65828C2.7281 6.56081 3.13321 5.53332 3.74456 4.68433C4.35592 3.83535 5.15081 3.1964 6.04527 2.83497C6.93973 2.47355 7.90055 2.40307 8.82624 2.63097C9.75193 2.85888 10.6081 3.37672 11.3044 4.12979C12.0006 4.88285 12.5111 5.84318 12.7818 6.90934H14.1245C15.0197 6.90934 15.8783 7.32776 16.5113 8.07257C17.1444 8.81737 17.5 9.82753 17.5 10.8808C17.5 11.9341 17.1444 12.9443 16.5113 13.6891C15.8783 14.4339 15.0197 14.8523 14.1245 14.8523H12.8928" stroke="#9CA3AF" stroke-width="2" stroke-linecap="round"/>
</g>
</svg>
